<svg width="18" height="18" viewBox="0 0 14 14" fill="none" xmlns="http://www.w3.org/2000/svg">
<path d="M13.214 4.4809C13.3002 4.70185 13.2274 4.94818 13.0416 5.10564L11.8751 6.10622C11.9047 6.31701 11.9209 6.53287 11.9209 6.75127C11.9209 6.96967 11.9047 7.18553 11.8751 7.39632L13.0416 8.3969C13.2274 8.55436 13.3002 8.80069 13.214 9.02163C13.0954 9.32384 12.9527 9.61335 12.7883 9.8927L12.6617 10.0984C12.4839 10.3778 12.2846 10.6419 12.0664 10.8908C11.9074 11.0736 11.6434 11.1345 11.4064 11.0634L9.90588 10.6139C9.5449 10.8755 9.14621 11.0939 8.72057 11.259L8.38384 12.7091C8.32996 12.9402 8.14139 13.123 7.89355 13.1611C7.5218 13.2195 7.13927 13.25 6.74865 13.25C6.35804 13.25 5.97551 13.2195 5.60375 13.1611C5.35592 13.123 5.16735 12.9402 5.11347 12.7091L4.77673 11.259C4.3511 11.0939 3.95241 10.8755 3.59143 10.6139L2.09363 11.066C1.85657 11.1371 1.59257 11.0736 1.43363 10.8933C1.21543 10.6444 1.01608 10.3803 0.838283 10.1009L0.71167 9.89524C0.547344 9.61589 0.404568 9.32638 0.286038 9.02417C0.199833 8.80323 0.272568 8.5569 0.458446 8.39944L1.6249 7.39886C1.59526 7.18553 1.5791 6.96967 1.5791 6.75127C1.5791 6.53287 1.59526 6.31701 1.6249 6.10622L0.458446 5.10564C0.272568 4.94818 0.199833 4.70185 0.286038 4.4809C0.404568 4.1787 0.547344 3.88919 0.71167 3.60984L0.838283 3.40413C1.01608 3.12478 1.21543 2.86067 1.43363 2.61179C1.59257 2.42894 1.85657 2.36799 2.09363 2.4391L3.59412 2.8886C3.9551 2.62703 4.35379 2.40862 4.77943 2.24355L5.11616 0.793466C5.17004 0.562366 5.35861 0.379517 5.60645 0.341424C5.9782 0.280475 6.36073 0.25 6.75135 0.25C7.14196 0.25 7.52449 0.280475 7.89625 0.338885C8.14408 0.376978 8.33265 0.559826 8.38653 0.790926L8.72327 2.24101C9.1489 2.40609 9.54759 2.62449 9.90857 2.88606L11.4091 2.43656C11.6461 2.36545 11.9101 2.42894 12.0691 2.60925C12.2873 2.85813 12.4866 3.12224 12.6644 3.40159L12.791 3.6073C12.9554 3.88665 13.0981 4.17616 13.2167 4.47836L13.214 4.4809ZM6.75135 8.78292C7.32292 8.78292 7.87108 8.56887 8.27524 8.18786C8.6794 7.80685 8.90645 7.2901 8.90645 6.75127C8.90645 6.21244 8.6794 5.69569 8.27524 5.31468C7.87108 4.93367 7.32292 4.71962 6.75135 4.71962C6.17978 4.71962 5.63162 4.93367 5.22746 5.31468C4.8233 5.69569 4.59624 6.21244 4.59624 6.75127C4.59624 7.2901 4.8233 7.80685 5.22746 8.18786C5.63162 8.56887 6.17978 8.78292 6.75135 8.78292Z" fill="#898989"/>
</svg>
