<svg width="18" height="20" viewBox="0 0 18 20" fill="none" xmlns="http://www.w3.org/2000/svg">
<path d="M12.2143 5C12.2143 4.1712 11.8756 3.37634 11.2728 2.79029C10.67 2.20424 9.85248 1.875 9 1.875C8.14752 1.875 7.32995 2.20424 6.72716 2.79029C6.12436 3.37634 5.78571 4.1712 5.78571 5C5.78571 5.8288 6.12436 6.62366 6.72716 7.20971C7.32995 7.79576 8.14752 8.125 9 8.125C9.85248 8.125 10.67 7.79576 11.2728 7.20971C11.8756 6.62366 12.2143 5.8288 12.2143 5ZM3.85714 5C3.85714 3.67392 4.39898 2.40215 5.36345 1.46447C6.32792 0.526784 7.63603 0 9 0C10.364 0 11.6721 0.526784 12.6365 1.46447C13.601 2.40215 14.1429 3.67392 14.1429 5C14.1429 6.32608 13.601 7.59785 12.6365 8.53553C11.6721 9.47322 10.364 10 9 10C7.63603 10 6.32792 9.47322 5.36345 8.53553C4.39898 7.59785 3.85714 6.32608 3.85714 5ZM1.9808 18.125H16.0192C15.6616 15.6523 13.4759 13.75 10.8362 13.75H7.16384C4.52411 13.75 2.33839 15.6523 1.9808 18.125ZM0 18.8398C0 14.9922 3.20625 11.875 7.16384 11.875H10.8362C14.7938 11.875 18 14.9922 18 18.8398C18 19.4805 17.4656 20 16.8067 20H1.1933C0.534375 20 0 19.4805 0 18.8398Z" fill="#0068E9"/>
</svg>
